<?xml version="1.0" encoding="UTF-8" standalone="no"?>
<!-- Created with Inkscape (http://www.inkscape.org/) -->

<svg
   width="100%"
   height="100%"
   viewBox="0 0 73.91748 73.917488"
   version="1.1"
   id="svg5"
   xml:space="preserve"
   xmlns:xlink="http://www.w3.org/1999/xlink"
   xmlns="http://www.w3.org/2000/svg"
   xmlns:svg="http://www.w3.org/2000/svg"><defs
     id="defs2" /><g
     id="layer1"
     style="display:none"
     transform="translate(-68.419649,-121.51313)"><image
       width="110.53268"
       height="221.06535"
       preserveAspectRatio="none"
       xlink:href="../../../../../../Documents/ghostlogo1.png"
       id="image140"
       x="50.112061"
       y="47.93919" /></g><circle
     style="display:inline;fill:#00000f;fill-opacity:1;stroke:#00000f;stroke-width:1.5;stroke-dasharray:none;stroke-opacity:1"
     id="path1394"
     cx="36.958755"
     cy="36.958736"
     r="36.208744" /><g
     id="layer2"
     transform="translate(-68.562094,-111.84671)"><path
       style="fill:#ffffff;fill-opacity:1;stroke:#00000f;stroke-width:1.5;stroke-dasharray:none;stroke-opacity:1"
       d="m 93.285158,163.51106 -9.147474,-4.76431 -0.857575,-16.10336 c 3.757537,-1.79231 4.063615,-6.89803 4.764309,-11.62491 1.397754,-2.46811 3.052615,-4.64239 5.336024,-6.09832 0.338953,1.32153 1.282415,2.1393 3.144446,2.19159 2.796606,3.50477 4.291192,1.61545 6.288882,1.81043 1.81044,0.75367 3.62088,1.57721 5.43132,-0.76229 1.87802,1.01428 3.76575,1.94773 5.90774,0.76229 0.59236,-0.4931 1.20112,-0.96161 1.61986,-1.71515 0.71872,-0.1373 1.46221,0.14668 2.0963,-1.42929 1.82942,1.03428 3.70262,2.7691 5.62188,5.24074 0.72659,4.35502 0.59761,9.10115 4.28788,12.10134 l -0.38114,16.19865 -8.9569,4.66902 -1.4293,7.71818 c -8.64946,2.29645 -16.10664,1.61219 -22.963964,-0.57171 z"
       id="path357" /></g><g
     id="layer3"
     style="display:inline"
     transform="translate(-68.23718,-110.92538)"><path
       style="fill:#000000;fill-opacity:1;stroke:#ffffff;stroke-width:0.499999;stroke-dasharray:none;stroke-opacity:1"
       d="m 105.48179,161.93884 c 3.22349,3.084 5.33373,2.32225 5.76481,-4.24023 -1.18288,-2.81617 -2.8037,-5.81824 -5.00252,-8.52812 l -0.76229,-0.0476 c -2.13432,2.77918 -5.01017,5.70129 -4.00202,8.48047 l -1.23872,1.61986 c 1.81686,5.59167 3.55064,5.61697 5.24074,2.71562 z"
       id="path1226" /><path
       style="fill:#000000;fill-opacity:1;stroke:#ffffff;stroke-width:0.499999;stroke-dasharray:none;stroke-opacity:1"
       d="m 113.39054,156.88867 1.52458,-2.62037 c -4.39909,-1.88625 -5.43443,-5.20209 -4.76431,-9.24276 3.74509,-5.54699 11.38669,-4.39993 13.14949,-0.47643 2.67261,6.46023 -1.25601,8.61212 -5.5266,10.10034 -1.56455,0.58671 -1.01366,0.97566 -4.38316,2.23922 z"
       id="path1228" /><path
       style="display:inline;fill:#000000;fill-opacity:1;stroke:#ffffff;stroke-width:0.485341;stroke-dasharray:none;stroke-opacity:1"
       d="M 98.37138,156.19537 96.834597,153.746 c 4.434293,-1.76316 5.477923,-4.86263 4.802443,-8.63963 -3.775065,-5.18502 -11.477833,-4.1128 -13.254744,-0.44534 -2.694002,6.03867 1.266064,8.05014 5.570839,9.44125 1.577073,0.54842 1.021774,0.91198 4.418245,2.09309 z"
       id="path1228-9" /><path
       style="fill:none;fill-opacity:1;stroke:#000000;stroke-width:0.7;stroke-dasharray:none;stroke-opacity:1"
       d="m 105.33886,172.94439 v -1.95336 l 1.52458,-1.33401 1.09579,0.95286 0.0953,2.33451 0.0953,-2.33451 0.95286,-0.76229 0.95286,0.90522 0.0953,2.14394 0.0953,-2.14394 1.09579,-0.90522 1.0005,1.00051 0.19057,1.76279 -0.0476,-1.81044 0.90522,-1.0005 0.90522,0.85758 0.23821,1.52457 -0.14293,-1.71515 0.95286,-0.71464 0.80994,0.80993 0.76229,1.04815"
       id="path1269" /><path
       style="display:inline;fill:none;stroke:#00000f;stroke-width:0.7;stroke-dasharray:none;stroke-opacity:1"
       d="m 105.40204,172.363 v -1.76872 l -1.46569,-1.20791 -1.05347,0.86279 -0.0916,2.66174 -0.0917,-2.66174 -0.91606,-0.69023 -0.91606,0.81965 -0.11542,2.13185 -0.0679,-2.13185 -1.05348,-0.81965 -0.961865,0.90593 -0.159388,1.85821 0.02194,-1.90135 -0.870259,-0.90593 -0.870259,0.77652 -0.22901,1.38046 0.13741,-1.55302 -0.91606,-0.64709 -0.778659,0.73337 -0.756672,0.82996"
       id="path1269-1" /></g></svg>
